<?xml version="1.0" encoding="utf-8"?>
<!-- Generator: Adobe Illustrator 23.0.2, SVG Export Plug-In . SVG Version: 6.00 Build 0)  -->
<svg version="1.1" id="Layer_1" xmlns="http://www.w3.org/2000/svg" xmlns:xlink="http://www.w3.org/1999/xlink" x="0px" y="0px"
	 viewBox="0 0 322 226.7" style="enable-background:new 0 0 322 226.7;" xml:space="preserve">
<style type="text/css">
	.st0{fill:#ffffff;}
</style>
<g>
	<g>
		<path class="st0" d="M124.66,94.78L124.66,94.78c-6.24-6.15-13.9-9.27-22.76-9.27c-8.95,0-16.63,3.12-22.83,9.28
			c-6.2,6.16-9.34,13.82-9.34,22.77c0,8.96,3.14,16.6,9.34,22.71c6.19,6.11,13.83,9.25,22.7,9.33c8.95,0,16.65-3.14,22.89-9.34
			c6.24-6.2,9.4-13.84,9.4-22.71C134.06,108.6,130.9,100.93,124.66,94.78z M122.1,117.67c0,5.89-1.97,10.91-5.87,14.92
			c-3.94,4.05-8.67,6.02-14.47,6.02c-5.72,0-10.54-2-14.34-5.96c-3.81-3.96-5.75-9-5.75-15c-0.08-5.97,1.84-11.05,5.69-15.09
			c3.89-4.09,8.65-6.08,14.52-6.08c5.79,0,10.51,1.97,14.4,6.02C120.15,106.52,122.1,111.62,122.1,117.67z"/>
		<rect x="150.54" y="54.88" class="st0" width="11.72" height="93.5"/>
		<rect x="182.87" y="54.88" class="st0" width="11.71" height="93.5"/>
		<path class="st0" d="M243.47,149.72c9.61,0,17.87-3.6,24.56-10.7l0.73-0.77l-7-8.08l-0.9,0.9c-5.09,5.09-10.91,7.68-17.27,7.68
			c-5.51,0-10.21-1.7-13.98-5.05c-3.46-3.08-5.59-7.12-6.32-12.04h46.28l0.2-0.92c0.5-2.26,0.76-4.72,0.76-7.3
			c0-8.07-2.72-14.81-8.07-20.05c-5.35-5.22-12.11-7.87-20.08-7.87c-8.79,0-16.32,3.15-22.36,9.35c-6.03,6.2-9.08,13.87-9.08,22.82
			c0,9.04,3.14,16.72,9.34,22.83C226.47,146.62,234.28,149.72,243.47,149.72z M230.02,100.76c3.41-2.92,7.49-4.39,12.12-4.39
			c4.62,0,8.54,1.43,11.67,4.25c2.88,2.6,4.43,6.02,4.73,10.4h-34.74C224.84,106.85,226.93,103.4,230.02,100.76z"/>
		<path class="st0" d="M298.73,113.66c0-5.11,1.65-8.99,5.05-11.86c3.41-2.88,7.57-4.34,12.37-4.34h4.7V87.05l-0.95-0.19
			c-1.7-0.34-3.25-0.51-4.61-0.51c-6.97,0-12.73,2.34-17.17,6.95v-6.47h-11.11v61.54h11.71V113.66z"/>
		<path class="st0" d="M91.81,174.72c6.47,0,11.79,2.91,16.27,8.9l0.73,0.98l8.32-6.66l-0.6-0.9c-5.83-8.69-14.18-13.1-24.83-13.1
			c-8.75,0-16.26,3.07-22.32,9.13c-6.06,6.06-9.13,13.52-9.13,22.2c0,8.75,3.07,16.26,9.13,22.31c6.05,6.06,13.56,9.13,22.32,9.13
			c10.57,0,18.89-4.41,24.71-13.1l0.61-0.91l-8.34-6.52l-0.72,0.97c-4.39,5.91-9.68,8.78-16.14,8.78c-5.73,0-10.36-1.94-14.16-5.92
			c-3.76-3.95-5.67-8.9-5.67-14.73c0-5.75,1.91-10.67,5.67-14.61C81.39,176.71,86.16,174.72,91.81,174.72z"/>
		<path class="st0" d="M154.11,163.94c-10.75,0-18.99,4.46-24.5,13.25l-0.55,0.88l7.79,6.42l0.74-0.97c4.55-5.92,9.76-8.8,15.92-8.8
			c4.06,0,7.15,1.11,9.43,3.39c2.25,2.25,3.39,5.63,3.39,10.03v3.81h-17.1c-6.49,0-11.8,1.56-15.79,4.64
			c-4.08,3.15-6.16,7.42-6.16,12.68c0,5.34,2.05,9.65,6.09,12.8c3.95,3.08,9.09,4.64,15.26,4.64c7.68,0,13.81-2.28,18.28-6.78v5.48
			h10.9v-36.78c0-7.89-2.2-14.04-6.53-18.29C166.99,166.09,161.2,163.94,154.11,163.94z M166.34,201.78v0.25
			c0,4.12-1.58,7.51-4.83,10.39c-3.24,2.87-7.17,4.33-11.68,4.33c-3.14,0-5.79-0.73-7.88-2.17c-1.97-1.36-2.93-3.25-2.93-5.79
			c0-1.73,0-7.01,11.28-7.01H166.34z"/>
		<path class="st0" d="M224.73,163.94c-6.76,0-12.34,1.97-16.62,5.85v-4.55h-10.9v60.15h11.49v-36.43c0-4.22,1.29-7.58,3.93-10.27
			c2.64-2.68,5.94-3.98,10.08-3.98c4.12,0,7.27,1.27,9.63,3.88c2.36,2.61,3.55,6.1,3.55,10.37v36.43h11.49V187.9
			c0-7.07-2.02-12.89-6-17.29C237.37,166.18,231.77,163.94,224.73,163.94z"/>
		<path class="st0" d="M295.39,215.89c-0.29,0.01-0.59,0.03-0.89,0.03c-5.38,0-9.96-1.66-13.64-4.92c-3.37-3-5.44-6.93-6.16-11.71
			h45.18l0.2-0.92c0.49-2.21,0.74-4.61,0.74-7.14c0-7.89-2.66-14.48-7.89-19.59v0c-5.23-5.11-11.84-7.69-19.63-7.69
			c-8.6,0-15.95,3.07-21.85,9.14c-5.89,6.06-8.88,13.56-8.88,22.3c0,8.84,3.07,16.34,9.13,22.32c6.05,5.97,13.68,9,22.66,9
			c0.27,0,0.53-0.02,0.8-0.03l1.53-0.07v-9.54l-0.08-1.24L295.39,215.89z M275.21,188.86c1.03-4.06,3.06-7.41,6.06-9.97
			c3.33-2.84,7.3-4.29,11.81-4.29c4.5,0,8.33,1.4,11.38,4.15c2.8,2.53,4.31,5.85,4.61,10.11H275.21z"/>
		<path class="st0" d="M79.92,12.06c22.31,0,40.46,18.15,40.46,40.46v0.9c-1.01,0.9-1.56,2-1.56,3.15c0,2.9,3.32,5.17,7.56,5.17
			c4.24,0,7.56-2.27,7.56-5.17c0-1.13-0.53-2.21-1.5-3.1v-0.95C132.44,23.56,108.88,0,79.92,0C58.67,0,39.25,13.14,31.25,32.81
			L9.86,27.65c-0.65-1.34-1.67-2.21-2.9-2.48C5.52,24.84,4,25.39,2.71,26.7c-1.15,1.17-2.02,2.84-2.44,4.72
			c-0.92,4.14,0.57,7.87,3.4,8.5c1.02,0.23,2.08,0.02,3.09-0.61l21.26,5.13c-0.42,2.71-0.64,5.42-0.64,8.08v129.9
			c-1.07,0.91-1.65,2.04-1.65,3.23c0,2.9,3.32,5.17,7.56,5.17s7.56-2.27,7.56-5.17c0-1.09-0.5-2.14-1.42-3.02V52.52
			C39.46,30.21,57.61,12.06,79.92,12.06z"/>
		<circle class="st0" cx="315.32" cy="220.02" r="6.68"/>
	</g>
	<path class="st0" d="M48.82,110.19c1.35-2.89,1.93-6.22,1.47-9.72c-1.03-7.85-7.45-14.12-15.31-14.99
		c-10.54-1.17-19.45,7.05-19.45,17.35c0,2.76,0.64,5.37,1.79,7.69c2.24,4.54,1.98,9.87-0.16,14.46c-1.35,2.89-1.93,6.22-1.47,9.72
		c1.03,7.85,7.45,14.12,15.31,14.99c10.54,1.17,19.45-7.05,19.45-17.35c0-2.76-0.64-5.37-1.79-7.69
		C46.42,120.11,46.68,114.78,48.82,110.19z"/>
</g>
</svg>
